<?xml version="1.0" encoding="iso-8859-1"?>
<!-- Generator: Adobe Illustrator 19.0.0, SVG Export Plug-In . SVG Version: 6.00 Build 0)  -->
<svg version="1.1" id="Capa_1" 
	xmlns="http://www.w3.org/2000/svg" 
	xmlns:xlink="http://www.w3.org/1999/xlink" x="0px" y="0px" viewBox="0 0 512 512" style="enable-background:new 0 0 512 512;" xml:space="preserve">
	<g>
		<g>
			<path d="M373.013,96.259c-99.819-99.819-262.229-99.819-362.048,0c-4.16,4.16-4.16,10.923,0,15.083
			c4.16,4.16,10.923,4.16,15.083,0c91.499-91.477,240.384-91.477,331.883,0c2.091,2.069,4.821,3.115,7.552,3.115
			c2.731,0,5.461-1.024,7.531-3.115C377.173,107.181,377.173,100.419,373.013,96.259z" fill="#fff" />
		</g>
	</g>
	<g>
		<g>
			<path d="M74.667,106.605H21.333V53.272c0-5.888-4.779-10.667-10.667-10.667S0,47.384,0,53.272v64
			c0,5.888,4.779,10.667,10.667,10.667h64c5.888,0,10.667-4.779,10.667-10.667S80.555,106.605,74.667,106.605z" fill="#fff"/>
		</g>
	</g>
	<g>
		<g>
			<path d="M481.493,260.952l-80.213-88.149c-15.893-15.872-41.749-15.872-57.749,0.128c-5.077,5.077-8.533,11.157-10.325,17.643
			c-15.957-12.224-38.976-11.008-53.675,3.691c-5.056,5.077-8.512,11.157-10.347,17.621c-15.979-12.181-38.976-11.008-53.653,3.712
			c-4.971,4.971-8.384,10.923-10.24,17.216l-37.803-37.803c-15.872-15.872-41.728-15.893-57.749,0.128
			c-15.893,15.872-15.893,41.728,0,57.621l145.237,145.237l-86.144,13.525C145.557,414.851,128,435.075,128,458.605
			c0,17.643,14.357,32,32,32h201.152c31.339,0,60.8-12.203,82.965-34.368l33.557-33.557C499.819,400.557,512,371.117,512,339.821
			C512,310.595,501.163,282.584,481.493,260.952z M462.592,407.597l-33.557,33.557c-18.133,18.133-42.24,28.117-67.883,28.117H160
			c-5.888,0-10.667-4.779-10.667-10.667c0-12.971,9.685-24.128,22.656-25.984l106.987-16.811c3.968-0.619,7.232-3.413,8.491-7.232
			c1.237-3.797,0.235-8-2.603-10.837L124.8,237.677c-7.573-7.573-7.573-19.883,0.128-27.584c3.797-3.776,8.768-5.675,13.739-5.675
			c4.971,0,9.941,1.899,13.739,5.675l106.731,106.731c4.16,4.16,10.923,4.16,15.083,0c2.069-2.091,3.115-4.821,3.115-7.552
			s-1.045-5.461-3.115-7.531l-43.584-43.584c-7.573-7.573-7.573-19.883,0.128-27.584c7.552-7.552,19.904-7.552,27.456,0
			l43.584,43.584c4.16,4.16,10.923,4.16,15.083,0c2.069-2.091,3.115-4.821,3.115-7.552s-1.045-5.461-3.029-7.445l-22.251-22.251
			c-7.573-7.573-7.573-19.883,0.128-27.584c7.552-7.552,19.904-7.552,27.456,0l22.251,22.251c0.021,0.021,0.021,0.021,0.021,0.021
			l0.021,0.021c0.021,0.021,0.021,0.021,0.021,0.021c0.021,0.021,0.021,0.021,0.021,0.021h0.021c0.021,0,0.021,0.021,0.021,0.021
			c4.181,3.968,10.773,3.883,14.869-0.213c4.16-4.16,4.16-10.923,0-15.083l-0.917-0.917c-3.669-3.669-5.696-8.555-5.696-13.739
			c0-5.184,2.005-10.048,5.803-13.845c7.573-7.552,19.883-7.531,27.115-0.363l79.872,87.787
			c16.064,17.685,24.939,40.597,24.939,64.512C490.667,365.421,480.704,389.485,462.592,407.597z" fill="#fff"/>
		</g>
	</g>
</svg>
